<?xml version="1.0" encoding="utf-8"?>
<svg xmlns="http://www.w3.org/2000/svg" width="2480" height="480" viewBox="0 0 2480 480">
  <style>
    :root {
      --color-A-6: #D5E38D;
      --color-A-5: #C0D651;
      --color-A-4: #71A450;
      --color-A-3: #79A950;
      --color-A-2: #507D49;
      --color-A-1: #4D6928;

      --color-B-6: #F8D94C;
      --color-B-5: #EDC64A;
      --color-B-4: #E0773D;
      --color-B-3: #D64033;
      --color-B-2: #A72D22;
      --color-B-1: #8F211B;

      --color-C-6: #89C7F0;
      --color-C-5: #4FAEEA;
      --color-C-4: #4090D1;
      --color-C-3: #3270B8;
      --color-C-2: #2F56A8;
      --color-C-1: #2C308B;

      --stroke-width-thin: 3;
      --stroke-width-thick: 9px;
    }
  </style>
  <defs>
    <g id="straight-segment">
      <path d="M 20,90 L 160,90" stroke="var(--color-B-1,#888888)" stroke-width="var(--stroke-width-thick,9)" fill="none"/>
      <path d="M 20,75 L 160,75" stroke="var(--color-B-2,#888888)" stroke-width="var(--stroke-width-thick,9)" fill="none"/>
      <path d="M 20,60 L 160,60" stroke="var(--color-B-3,#888888)" stroke-width="var(--stroke-width-thick,9)" fill="none"/>
      <path d="M 20,45 L 160,45" stroke="var(--color-B-4,#888888)" stroke-width="var(--stroke-width-thick,9)" fill="none"/>
      <path d="M 20,30 L 160,30" stroke="var(--color-B-5,#888888)" stroke-width="var(--stroke-width-thick,9)" fill="none"/>
      <path d="M 20,15 L 160,15" stroke="var(--color-B-6,#888888)" stroke-width="var(--stroke-width-thick,9)" fill="none"/>
    </g>
  </defs>
  <defs>
    <g id="curved-segment">
      <path d="M 20,150 Q 150,150 150,20" stroke="var(--color-B-1,#888888)" stroke-width="var(--stroke-width-thick,9)" fill="none"/>
      <path d="M 20,135 Q 135,135 135,20" stroke="var(--color-B-2,#888888)" stroke-width="var(--stroke-width-thick,9)" fill="none"/>
      <path d="M 20,120 Q 120,120 120,20" stroke="var(--color-B-3,#888888)" stroke-width="var(--stroke-width-thick,9)" fill="none"/>
      <path d="M 20,105 Q 105,105 105,20" stroke="var(--color-B-4,#888888)" stroke-width="var(--stroke-width-thick,9)" fill="none"/>
      <path d="M 20,90 Q 90,90 90,20" stroke="var(--color-B-5,#888888)" stroke-width="var(--stroke-width-thick,9)" fill="none"/>
      <path d="M 20,75 Q 75,75 75,20" stroke="var(--color-B-6,#888888)" stroke-width="var(--stroke-width-thick,9)" fill="none"/>
    </g>
  </defs>
  <g style="transform-origin: 595.497px 489.016px;">
    <g transform="matrix(0.674257, 0, 0, 0.674257, 119.337524, 272.278961)" style="">
      <path d="M 20,150 Q 150,150 150,20" stroke="var(--color-B-6,#888888)" stroke-width="var(--stroke-width-thick,9)" fill="none"/>
      <path d="M 20,135 Q 135,135 135,20" stroke="var(--color-B-5,#888888)" stroke-width="var(--stroke-width-thick,9)" fill="none"/>
      <path d="M 20,120 Q 120,120 120,20" stroke="var(--color-B-4,#888888)" stroke-width="var(--stroke-width-thick,9)" fill="none"/>
      <path d="M 20,105 Q 105,105 105,20" stroke="var(--color-B-3,#888888)" stroke-width="var(--stroke-width-thick,9)" fill="none"/>
      <path d="M 20,90 Q 90,90 90,20" stroke="var(--color-B-2,#888888)" stroke-width="var(--stroke-width-thick,9)" fill="none"/>
      <path d="M 20,75 Q 75,75 75,20" stroke="var(--color-B-1,#888888)" stroke-width="var(--stroke-width-thick,9)" fill="none"/>
    </g>
    <g transform="matrix(-0.674257, 0, 0, -0.674257, 128.733505, 77.300369)" style="transform-origin: 85px 85px;">
      <path d="M 20,150 Q 150,150 150,20" stroke="var(--color-B-1,#888888)" stroke-width="var(--stroke-width-thick,9)" fill="none"/>
      <path d="M 20,135 Q 135,135 135,20" stroke="var(--color-B-2,#888888)" stroke-width="var(--stroke-width-thick,9)" fill="none"/>
      <path d="M 20,120 Q 120,120 120,20" stroke="var(--color-B-3,#888888)" stroke-width="var(--stroke-width-thick,9)" fill="none"/>
      <path d="M 20,105 Q 105,105 105,20" stroke="var(--color-B-4,#888888)" stroke-width="var(--stroke-width-thick,9)" fill="none"/>
      <path d="M 20,90 Q 90,90 90,20" stroke="var(--color-B-5,#888888)" stroke-width="var(--stroke-width-thick,9)" fill="none"/>
      <path d="M 20,75 Q 75,75 75,20" stroke="var(--color-B-6,#888888)" stroke-width="var(--stroke-width-thick,9)" fill="none"/>
    </g>
    <g transform="matrix(-0.674257, 0, 0, -0.674257, -37.014435, 280.289673)" style="transform-origin: 85px 85px;">
      <path d="M 20,150 Q 150,150 150,20" stroke="var(--color-B-1,#888888)" stroke-width="var(--stroke-width-thick,9)" fill="none"/>
      <path d="M 20,135 Q 135,135 135,20" stroke="var(--color-B-2,#888888)" stroke-width="var(--stroke-width-thick,9)" fill="none"/>
      <path d="M 20,120 Q 120,120 120,20" stroke="var(--color-B-3,#888888)" stroke-width="var(--stroke-width-thick,9)" fill="none"/>
      <path d="M 20,105 Q 105,105 105,20" stroke="var(--color-B-4,#888888)" stroke-width="var(--stroke-width-thick,9)" fill="none"/>
      <path d="M 20,90 Q 90,90 90,20" stroke="var(--color-B-5,#888888)" stroke-width="var(--stroke-width-thick,9)" fill="none"/>
      <path d="M 20,75 Q 75,75 75,20" stroke="var(--color-B-6,#888888)" stroke-width="var(--stroke-width-thick,9)" fill="none"/>
    </g>
    <g transform="matrix(-5.747621, 0, 0, -0.674257, 692.501099, 290.833191)" style="transform-origin: 90px 52.5px;">
      <path d="M 20,90 L 160,90" stroke="var(--color-B-1,#888888)" stroke-width="var(--stroke-width-thick,9)" fill="none"/>
      <path d="M 20,75 L 160,75" stroke="var(--color-B-2,#888888)" stroke-width="var(--stroke-width-thick,9)" fill="none"/>
      <path d="M 20,60 L 160,60" stroke="var(--color-B-3,#888888)" stroke-width="var(--stroke-width-thick,9)" fill="none"/>
      <path d="M 20,45 L 160,45" stroke="var(--color-B-4,#888888)" stroke-width="var(--stroke-width-thick,9)" fill="none"/>
      <path d="M 20,30 L 160,30" stroke="var(--color-B-5,#888888)" stroke-width="var(--stroke-width-thick,9)" fill="none"/>
      <path d="M 20,15 L 160,15" stroke="var(--color-B-6,#888888)" stroke-width="var(--stroke-width-thick,9)" fill="none"/>
    </g>
    <g transform="matrix(0, 5.747621, -0.674257, 0, -60.556496, 758.911194)" style="transform-origin: 90px 52.5px;">
      <path d="M 20,90 L 160,90" stroke="var(--color-B-1,#888888)" stroke-width="var(--stroke-width-thick,9)" fill="none"/>
      <path d="M 20,75 L 160,75" stroke="var(--color-B-2,#888888)" stroke-width="var(--stroke-width-thick,9)" fill="none"/>
      <path d="M 20,60 L 160,60" stroke="var(--color-B-3,#888888)" stroke-width="var(--stroke-width-thick,9)" fill="none"/>
      <path d="M 20,45 L 160,45" stroke="var(--color-B-4,#888888)" stroke-width="var(--stroke-width-thick,9)" fill="none"/>
      <path d="M 20,30 L 160,30" stroke="var(--color-B-5,#888888)" stroke-width="var(--stroke-width-thick,9)" fill="none"/>
      <path d="M 20,15 L 160,15" stroke="var(--color-B-6,#888888)" stroke-width="var(--stroke-width-thick,9)" fill="none"/>
    </g>
    <g transform="matrix(0, -0.577733, -0.674257, 0, 105.191444, 193.097107)" style="transform-origin: 90px 52.5px;">
      <path d="M 20,90 L 160,90" stroke="var(--color-B-1,#888888)" stroke-width="var(--stroke-width-thick,9)" fill="none"/>
      <path d="M 20,75 L 160,75" stroke="var(--color-B-2,#888888)" stroke-width="var(--stroke-width-thick,9)" fill="none"/>
      <path d="M 20,60 L 160,60" stroke="var(--color-B-3,#888888)" stroke-width="var(--stroke-width-thick,9)" fill="none"/>
      <path d="M 20,45 L 160,45" stroke="var(--color-B-4,#888888)" stroke-width="var(--stroke-width-thick,9)" fill="none"/>
      <path d="M 20,30 L 160,30" stroke="var(--color-B-5,#888888)" stroke-width="var(--stroke-width-thick,9)" fill="none"/>
      <path d="M 20,15 L 160,15" stroke="var(--color-B-6,#888888)" stroke-width="var(--stroke-width-thick,9)" fill="none"/>
    </g>
    <g transform="matrix(0, -0.542593, 0.67425, 0, 283.464844, 291.875946)" style="">
      <path d="M 20,90 L 160,90" stroke="var(--color-B-1,#888888)" stroke-width="var(--stroke-width-thick,9)" fill="none"/>
      <path d="M 20,75 L 160,75" stroke="var(--color-B-2,#888888)" stroke-width="var(--stroke-width-thick,9)" fill="none"/>
      <path d="M 20,60 L 160,60" stroke="var(--color-B-3,#888888)" stroke-width="var(--stroke-width-thick,9)" fill="none"/>
      <path d="M 20,45 L 160,45" stroke="var(--color-B-4,#888888)" stroke-width="var(--stroke-width-thick,9)" fill="none"/>
      <path d="M 20,30 L 160,30" stroke="var(--color-B-5,#888888)" stroke-width="var(--stroke-width-thick,9)" fill="none"/>
      <path d="M 20,15 L 160,15" stroke="var(--color-B-6,#888888)" stroke-width="var(--stroke-width-thick,9)" fill="none"/>
    </g>
    <g transform="matrix(0, -0.674257, 0.674257, 0, 215.35054, 77.300369)" style="transform-origin: 85px 85px;">
      <path d="M 20,150 Q 150,150 150,20" stroke="var(--color-B-1)" stroke-width="var(--stroke-width-thick, #333)" fill="none"/>
      <path d="M 20,135 Q 135,135 135,20" stroke="var(--color-B-2,#888888)" stroke-width="var(--stroke-width-thick,9)" fill="none"/>
      <path d="M 20,120 Q 120,120 120,20" stroke="var(--color-B-3,#888888)" stroke-width="var(--stroke-width-thick,9)" fill="none"/>
      <path d="M 20,105 Q 105,105 105,20" stroke="var(--color-B-4,#888888)" stroke-width="var(--stroke-width-thick,9)" fill="none"/>
      <path d="M 20,90 Q 90,90 90,20" stroke="var(--color-B-5,#888888)" stroke-width="var(--stroke-width-thick,9)" fill="none"/>
      <path d="M 20,75 Q 75,75 75,20" stroke="var(--color-B-6,#888888)" stroke-width="var(--stroke-width-thick,9)" fill="none"/>
    </g>
    <g transform="matrix(0, 0.674257, -0.674257, 0, 252.352707, 239.791977)" style="transform-origin: 85px 85px;">
      <path d="M 20,150 Q 150,150 150,20" stroke="var(--color-B-6,#888888)" stroke-width="var(--stroke-width-thick,9)" fill="none"/>
      <path d="M 20,135 Q 135,135 135,20" stroke="var(--color-B-5,#888888)" stroke-width="var(--stroke-width-thick,9)" fill="none"/>
      <path d="M 20,120 Q 120,120 120,20" stroke="var(--color-B-4,#888888)" stroke-width="var(--stroke-width-thick,9)" fill="none"/>
      <path d="M 20,105 Q 105,105 105,20" stroke="var(--color-B-3,#888888)" stroke-width="var(--stroke-width-thick,9)" fill="none"/>
      <path d="M 20,90 Q 90,90 90,20" stroke="var(--color-B-2,#888888)" stroke-width="var(--stroke-width-thick,9)" fill="none"/>
      <path d="M 20,75 Q 75,75 75,20" stroke="var(--color-B-1,#888888)" stroke-width="var(--stroke-width-thick,9)" fill="none"/>
    </g>
    <rect x="84.187" y="302.885" width="63.908" height="119.386" style="fill: rgb(255, 255, 255);"/>
    <ellipse style="fill: var(--color-B-1,#888888);" cx="485.835" cy="317.533" rx="2.755" ry="2.755"/>
    <ellipse style="fill: var(--color-B-2,#888888);" cx="530.767" cy="327.853" rx="2.755" ry="2.755"/>
    <ellipse style="fill: var(--color-B-3,#888888);" cx="506.653" cy="338.319" rx="2.755" ry="2.755"/>
    <ellipse style="fill: var(--color-B-4,#888888);" cx="491.085" cy="348.084" rx="2.755" ry="2.755"/>
    <ellipse style="fill: var(--color-B-5,#888888);" cx="449.105" cy="358.245" rx="2.755" ry="2.755"/>
    <ellipse style="fill: var(--color-B-6,#888888);" cx="412.063" cy="368.627" rx="2.755" ry="2.755"/>
    <g transform="matrix(0, -7.638319, -0.674257, 0, 25.981133, 246.469009)" style="transform-origin: 90px 52.5px;">
      <path d="M 20,90 L 160,90" stroke="var(--color-A-1,#888888)" stroke-width="var(--stroke-width-thick,9)" fill="none"/>
      <path d="M 20,75 L 160,75" stroke="var(--color-A-2,#888888)" stroke-width="var(--stroke-width-thick,9)" fill="none"/>
      <path d="M 20,60 L 160,60" stroke="var(--color-A-3,#888888)" stroke-width="var(--stroke-width-thick,9)" fill="none"/>
      <path d="M 20,45 L 160,45" stroke="var(--color-A-4,#888888)" stroke-width="var(--stroke-width-thick,9)" fill="none"/>
      <path d="M 20,30 L 160,30" stroke="var(--color-A-5,#888888)" stroke-width="var(--stroke-width-thick,9)" fill="none"/>
      <path d="M 20,15 L 160,15" stroke="var(--color-A-6,#888888)" stroke-width="var(--stroke-width-thick,9)" fill="none"/>
    </g>
  </g>
  <rect x="-1198.4" y="-374.15" width="228.83" height="12.785" style="fill: rgb(255, 255, 255); stroke-width: 1; transform-box: fill-box; transform-origin: 50% 50%;" transform="matrix(-1, 0, 0, -1, 2167.970009, 735.515001)"/>
  <rect x="-1190.5" y="-363.67" width="307.199" height="11.594" style="fill: rgb(255, 255, 255); stroke-width: 1; transform-box: fill-box; transform-origin: 50% 50%;" transform="matrix(-1, 0, 0, -1, 2073.80101, 715.74603)"/>
  <rect x="-1214.5" y="-357.61" width="307.199" height="12.785" style="fill: rgb(255, 255, 255); stroke-width: 1; transform-box: fill-box; transform-origin: 50% 50%;" transform="matrix(-1, 0, 0, -1, 2121.80101, 702.434984)"/>
  <rect x="-1189.4" y="-344.24" width="369.119" height="22.685" style="fill: rgb(255, 255, 255); stroke-width: 1; transform-box: fill-box; transform-origin: 50% 50%;" transform="matrix(-1, 0, 0, -1, 2009.681046, 665.794982)"/>
  <rect x="-1154.6" y="-335.11" width="344.919" height="12.199" style="fill: rgb(255, 255, 255); stroke-width: 1; transform-box: fill-box; transform-origin: 50% 50%;" transform="matrix(-1, 0, 0, -1, 1964.280975, 658.020983)"/>
  <rect x="-1194.6" y="-323.56" width="404.936" height="22.481" style="fill: rgb(255, 255, 255); stroke-width: 1; transform-box: fill-box; transform-origin: 50% 50%;" transform="matrix(-1, 0, 0, -1, 1984.263931, 624.638986)"/>
</svg>