<?xml version="1.0" encoding="utf-8"?>
<svg xmlns="http://www.w3.org/2000/svg" width="800" height="256" viewBox="0 0 800 256">
  <style>
    :root {
      --color-A-6: #D5E38D;
      --color-A-5: #C0D651;
      --color-A-4: #71A450;
      --color-A-3: #79A950;
      --color-A-2: #507D49;
      --color-A-1: #4D6928;

      --color-B-6: #F8D94C;
      --color-B-5: #EDC64A;
      --color-B-4: #E0773D;
      --color-B-3: #D64033;
      --color-B-2: #A72D22;
      --color-B-1: #8F211B;

      --stroke-width-thin: 3;
      --stroke-width-thick: 9px;
    }
  </style>
  <g transform="matrix(-1.237068, 0, 0, -0.900193, 152.349808, 151.638657)" style="transform-origin: 90px 52.5px;">
    <path d="M 20,90 L 160,90" stroke="var(--color-B-1,#888888)" stroke-width="var(--stroke-width-thick,9)" fill="none"/>
    <path d="M 20,75 L 160,75" stroke="var(--color-B-2,#888888)" stroke-width="var(--stroke-width-thick,9)" fill="none"/>
    <path d="M 20,60 L 160,60" stroke="var(--color-B-3,#888888)" stroke-width="var(--stroke-width-thick,9)" fill="none"/>
    <path d="M 20,45 L 160,45" stroke="var(--color-B-4,#888888)" stroke-width="var(--stroke-width-thick,9)" fill="none"/>
    <path d="M 20,30 L 160,30" stroke="var(--color-B-5,#888888)" stroke-width="var(--stroke-width-thick,9)" fill="none"/>
    <path d="M 20,15 L 160,15" stroke="var(--color-B-6,#888888)" stroke-width="var(--stroke-width-thick,9)" fill="none"/>
  </g>
  <g transform="matrix(0.900193, 0, 0, 0.900193, 310.062927, 102.866943)" style="">
    <path d="M 20,150 Q 150,150 150,20" stroke="var(--color-B-6,#888888)" stroke-width="var(--stroke-width-thick,9)" fill="none"/>
    <path d="M 20,135 Q 135,135 135,20" stroke="var(--color-B-5,#888888)" stroke-width="var(--stroke-width-thick,9)" fill="none"/>
    <path d="M 20,120 Q 120,120 120,20" stroke="var(--color-B-4,#888888)" stroke-width="var(--stroke-width-thick,9)" fill="none"/>
    <path d="M 20,105 Q 105,105 105,20" stroke="var(--color-B-3,#888888)" stroke-width="var(--stroke-width-thick,9)" fill="none"/>
    <path d="M 20,90 Q 90,90 90,20" stroke="var(--color-B-2,#888888)" stroke-width="var(--stroke-width-thick,9)" fill="none"/>
    <path d="M 20,75 Q 75,75 75,20" stroke="var(--color-B-1,#888888)" stroke-width="var(--stroke-width-thick,9)" fill="none"/>
  </g>
  <g transform="matrix(-0.900193, 0, 0, -0.900193, 351.118317, -22.041126)" style="transform-origin: 85px 85px;">
    <path d="M 20,150 Q 150,150 150,20" stroke="var(--color-B-1,#888888)" stroke-width="var(--stroke-width-thick,9)" fill="none"/>
    <path d="M 20,135 Q 135,135 135,20" stroke="var(--color-B-2,#888888)" stroke-width="var(--stroke-width-thick,9)" fill="none"/>
    <path d="M 20,120 Q 120,120 120,20" stroke="var(--color-B-3,#888888)" stroke-width="var(--stroke-width-thick,9)" fill="none"/>
    <path d="M 20,105 Q 105,105 105,20" stroke="var(--color-B-4,#888888)" stroke-width="var(--stroke-width-thick,9)" fill="none"/>
    <path d="M 20,90 Q 90,90 90,20" stroke="var(--color-B-5,#888888)" stroke-width="var(--stroke-width-thick,9)" fill="none"/>
    <path d="M 20,75 Q 75,75 75,20" stroke="var(--color-B-6,#888888)" stroke-width="var(--stroke-width-thick,9)" fill="none"/>
  </g>
  <g transform="matrix(-0.900193, 0, 0, -0.900193, 13.202878, 143.893967)" style="transform-origin: 85px 85px;">
    <path d="M 20,150 Q 150,150 150,20" stroke="var(--color-B-1,#888888)" stroke-width="var(--stroke-width-thick,9)" fill="none"/>
    <path d="M 20,135 Q 135,135 135,20" stroke="var(--color-B-2,#888888)" stroke-width="var(--stroke-width-thick,9)" fill="none"/>
    <path d="M 20,120 Q 120,120 120,20" stroke="var(--color-B-3,#888888)" stroke-width="var(--stroke-width-thick,9)" fill="none"/>
    <path d="M 20,105 Q 105,105 105,20" stroke="var(--color-B-4,#888888)" stroke-width="var(--stroke-width-thick,9)" fill="none"/>
    <path d="M 20,90 Q 90,90 90,20" stroke="var(--color-B-5,#888888)" stroke-width="var(--stroke-width-thick,9)" fill="none"/>
    <path d="M 20,75 Q 75,75 75,20" stroke="var(--color-B-6,#888888)" stroke-width="var(--stroke-width-thick,9)" fill="none"/>
  </g>
  <g transform="matrix(0, -0.900193, 0.900193, 0, 465.595581, -22.041126)" style="transform-origin: 85px 85px;">
    <path d="M 20,150 Q 150,150 150,20" stroke="var(--color-B-1,#888888)" stroke-width="var(--stroke-width-thick,9)" fill="none"/>
    <path d="M 20,135 Q 135,135 135,20" stroke="var(--color-B-2,#888888)" stroke-width="var(--stroke-width-thick,9)" fill="none"/>
    <path d="M 20,120 Q 120,120 120,20" stroke="var(--color-B-3,#888888)" stroke-width="var(--stroke-width-thick,9)" fill="none"/>
    <path d="M 20,105 Q 105,105 105,20" stroke="var(--color-B-4,#888888)" stroke-width="var(--stroke-width-thick,9)" fill="none"/>
    <path d="M 20,90 Q 90,90 90,20" stroke="var(--color-B-5,#888888)" stroke-width="var(--stroke-width-thick,9)" fill="none"/>
    <path d="M 20,75 Q 75,75 75,20" stroke="var(--color-B-6,#888888)" stroke-width="var(--stroke-width-thick,9)" fill="none"/>
  </g>
  <g transform="matrix(0, 0.900193, -0.900193, 0, 514.896118, 85.825935)" style="transform-origin: 85px 85px;">
    <path d="M 20,150 Q 150,150 150,20" stroke="var(--color-B-6,#888888)" stroke-width="var(--stroke-width-thick,9)" fill="none"/>
    <path d="M 20,135 Q 135,135 135,20" stroke="var(--color-B-5,#888888)" stroke-width="var(--stroke-width-thick,9)" fill="none"/>
    <path d="M 20,120 Q 120,120 120,20" stroke="var(--color-B-4,#888888)" stroke-width="var(--stroke-width-thick,9)" fill="none"/>
    <path d="M 20,105 Q 105,105 105,20" stroke="var(--color-B-3,#888888)" stroke-width="var(--stroke-width-thick,9)" fill="none"/>
    <path d="M 20,90 Q 90,90 90,20" stroke="var(--color-B-2,#888888)" stroke-width="var(--stroke-width-thick,9)" fill="none"/>
    <path d="M 20,75 Q 75,75 75,20" stroke="var(--color-B-1,#888888)" stroke-width="var(--stroke-width-thick,9)" fill="none"/>
  </g>
  <g transform="matrix(-2.095126, 0, 0, -0.900193, 713.765015, 143.081238)" style="transform-origin: 90px 52.5px;">
    <path d="M 20,90 L 160,90" stroke="var(--color-B-1,#888888)" stroke-width="var(--stroke-width-thick,9)" fill="none"/>
    <path d="M 20,75 L 160,75" stroke="var(--color-B-2,#888888)" stroke-width="var(--stroke-width-thick,9)" fill="none"/>
    <path d="M 20,60 L 160,60" stroke="var(--color-B-3,#888888)" stroke-width="var(--stroke-width-thick,9)" fill="none"/>
    <path d="M 20,45 L 160,45" stroke="var(--color-B-4,#888888)" stroke-width="var(--stroke-width-thick,9)" fill="none"/>
    <path d="M 20,30 L 160,30" stroke="var(--color-B-5,#888888)" stroke-width="var(--stroke-width-thick,9)" fill="none"/>
    <path d="M 20,15 L 160,15" stroke="var(--color-B-6,#888888)" stroke-width="var(--stroke-width-thick,9)" fill="none"/>
  </g>
  <g transform="matrix(-2.095126, 0, 0, -0.900193, -82.434395, 25.908825)" style="transform-origin: 90px 52.5px;">
    <path d="M 20,90 L 160,90" stroke="var(--color-A-1,#888888)" stroke-width="var(--stroke-width-thick,9)" fill="none"/>
    <path d="M 20,75 L 160,75" stroke="var(--color-A-2,#888888)" stroke-width="var(--stroke-width-thick,9)" fill="none"/>
    <path d="M 20,60 L 160,60" stroke="var(--color-A-3,#888888)" stroke-width="var(--stroke-width-thick,9)" fill="none"/>
    <path d="M 20,45 L 160,45" stroke="var(--color-A-4,#888888)" stroke-width="var(--stroke-width-thick,9)" fill="none"/>
    <path d="M 20,30 L 160,30" stroke="var(--color-A-5,#888888)" stroke-width="var(--stroke-width-thick,9)" fill="none"/>
    <path d="M 20,15 L 160,15" stroke="var(--color-A-6,#888888)" stroke-width="var(--stroke-width-thick,9)" fill="none"/>
  </g>
  <rect x="192.656" y="163.326" width="85.389" height="85.819" style="fill: rgb(255, 255, 255);"/>
  <g transform="matrix(0, -0.900192, 0.900192, 0, 126.313248, 18.164072)" style="transform-origin: 85px 85px;">
    <path d="M 20,150 Q 150,150 150,20" stroke="var(--color-A-1,#888888)" stroke-width="var(--stroke-width-thick,9)" fill="none"/>
    <path d="M 20,135 Q 135,135 135,20" stroke="var(--color-A-2,#888888)" stroke-width="var(--stroke-width-thick,9)" fill="none"/>
    <path d="M 20,120 Q 120,120 120,20" stroke="var(--color-A-3,#888888)" stroke-width="var(--stroke-width-thick,9)" fill="none"/>
    <path d="M 20,105 Q 105,105 105,20" stroke="var(--color-A-4,#888888)" stroke-width="var(--stroke-width-thick,9)" fill="none"/>
    <path d="M 20,90 Q 90,90 90,20" stroke="var(--color-A-5,#888888)" stroke-width="var(--stroke-width-thick,9)" fill="none"/>
    <path d="M 20,75 Q 75,75 75,20" stroke="var(--color-A-6,#888888)" stroke-width="var(--stroke-width-thick,9)" fill="none"/>
  </g>
  <g transform="matrix(0, -2.095126, 0.900193, 0, 146.005936, 255.225586)" style="transform-origin: 90px 52.5px;">
    <path d="M 20,90 L 160,90" stroke="var(--color-A-1,#888888)" stroke-width="var(--stroke-width-thick,9)" fill="none"/>
    <path d="M 20,75 L 160,75" stroke="var(--color-A-2,#888888)" stroke-width="var(--stroke-width-thick,9)" fill="none"/>
    <path d="M 20,60 L 160,60" stroke="var(--color-A-3,#888888)" stroke-width="var(--stroke-width-thick,9)" fill="none"/>
    <path d="M 20,45 L 160,45" stroke="var(--color-A-4,#888888)" stroke-width="var(--stroke-width-thick,9)" fill="none"/>
    <path d="M 20,30 L 160,30" stroke="var(--color-A-5,#888888)" stroke-width="var(--stroke-width-thick,9)" fill="none"/>
    <path d="M 20,15 L 160,15" stroke="var(--color-A-6,#888888)" stroke-width="var(--stroke-width-thick,9)" fill="none"/>
  </g>
</svg>