<?xml version="1.0" encoding="utf-8"?>
<svg xmlns="http://www.w3.org/2000/svg" width="1370" height="270" viewBox="0 0 1370 270">
  <style>
    :root {









      --color-C-6: #89C7F0;
      --color-C-5: #4FAEEA;
      --color-C-4: #4090D1;
      --color-C-3: #3270B8;
      --color-C-2: #2F56A8;
      --color-C-1: #2C308B;

      --color-6: #8000ff;
      --stroke-width-thin: 3;
      --stroke-width-thick: 9px;
    }
  </style>
  <defs>
    <g id="straight-segment">
      <path d="M 20,90 L 160,90" stroke="var(--color-C-1,#888888)" stroke-width="var(--stroke-width-thick,9)" fill="none"/>
      <path d="M 20,75 L 160,75" stroke="var(--color-C-2,#888888)" stroke-width="var(--stroke-width-thick,9)" fill="none"/>
      <path d="M 20,60 L 160,60" stroke="var(--color-C-3,#888888)" stroke-width="var(--stroke-width-thick,9)" fill="none"/>
      <path d="M 20,45 L 160,45" stroke="var(--color-C-4,#888888)" stroke-width="var(--stroke-width-thick,9)" fill="none"/>
      <path d="M 20,30 L 160,30" stroke="var(--color-C-5,#888888)" stroke-width="var(--stroke-width-thick,9)" fill="none"/>
      <path d="M 20,15 L 160,15" stroke="var(--color-C-6,#888888)" stroke-width="var(--stroke-width-thick,9)" fill="none"/>
    </g>
  </defs>
  <g transform="matrix(-0.000002, -2.086209, 1.058346, 0, 1203.802734, 340.681671)" style="transform-origin: 90px 52.5px;">
    <path d="M 20,90 L 160,90" stroke="var(--color-C-1,#888888)" stroke-width="var(--stroke-width-thick,9)" fill="none"/>
    <path d="M 20,75 L 160,75" stroke="var(--color-C-2,#888888)" stroke-width="var(--stroke-width-thick,9)" fill="none"/>
    <path d="M 20,60 L 160,60" stroke="var(--color-C-3,#888888)" stroke-width="var(--stroke-width-thick,9)" fill="none"/>
    <path d="M 20,45 L 160,45" stroke="var(--color-C-4,#888888)" stroke-width="var(--stroke-width-thick,9)" fill="none"/>
    <path d="M 20,30 L 160,30" stroke="var(--color-C-5,#888888)" stroke-width="var(--stroke-width-thick,9)" fill="none"/>
    <path d="M 20,15 L 160,15" stroke="var(--color-C-6,#888888)" stroke-width="var(--stroke-width-thick,9)" fill="none"/>
  </g>
  <defs>
    <g id="curved-segment">
      <path d="M 20,150 Q 150,150 150,20" stroke="var(--color-C-1,#888888)" stroke-width="var(--stroke-width-thick,9)" fill="none"/>
      <path d="M 20,135 Q 135,135 135,20" stroke="var(--color-C-2,#888888)" stroke-width="var(--stroke-width-thick,9)" fill="none"/>
      <path d="M 20,120 Q 120,120 120,20" stroke="var(--color-C-3,#888888)" stroke-width="var(--stroke-width-thick,9)" fill="none"/>
      <path d="M 20,105 Q 105,105 105,20" stroke="var(--color-C-4,#888888)" stroke-width="var(--stroke-width-thick,9)" fill="none"/>
      <path d="M 20,90 Q 90,90 90,20" stroke="var(--color-C-5,#888888)" stroke-width="var(--stroke-width-thick,9)" fill="none"/>
      <path d="M 20,75 Q 75,75 75,20" stroke="var(--color-C-6,#888888)" stroke-width="var(--stroke-width-thick,9)" fill="none"/>
    </g>
  </defs>
  <g transform="matrix(0, -1.058346, 1.058346, 0, 1179.486938, 93.324326)" style="transform-origin: 85px 85px;">
    <path d="M 20,150 Q 150,150 150,20" stroke="var(--color-C-1,#888888)" stroke-width="var(--stroke-width-thick,9)" fill="none"/>
    <path d="M 20,135 Q 135,135 135,20" stroke="var(--color-C-2,#888888)" stroke-width="var(--stroke-width-thick,9)" fill="none"/>
    <path d="M 20,120 Q 120,120 120,20" stroke="var(--color-C-3,#888888)" stroke-width="var(--stroke-width-thick,9)" fill="none"/>
    <path d="M 20,105 Q 105,105 105,20" stroke="var(--color-C-4,#888888)" stroke-width="var(--stroke-width-thick,9)" fill="none"/>
    <path d="M 20,90 Q 90,90 90,20" stroke="var(--color-C-5,#888888)" stroke-width="var(--stroke-width-thick,9)" fill="none"/>
    <path d="M 20,75 Q 75,75 75,20" stroke="var(--color-C-6,#888888)" stroke-width="var(--stroke-width-thick,9)" fill="none"/>
  </g>
  <g transform="matrix(-9.436682, 0.000006, 0, -1.058346, 446.349304, 96.72023)" style="transform-origin: 90px 52.5px;">
    <path d="M 20,90 L 160,90" stroke="var(--color-C-1,#888888)" stroke-width="var(--stroke-width-thick,9)" fill="none"/>
    <path d="M 20,75 L 160,75" stroke="var(--color-C-2,#888888)" stroke-width="var(--stroke-width-thick,9)" fill="none"/>
    <path d="M 20,60 L 160,60" stroke="var(--color-C-3,#888888)" stroke-width="var(--stroke-width-thick,9)" fill="none"/>
    <path d="M 20,45 L 160,45" stroke="var(--color-C-4,#888888)" stroke-width="var(--stroke-width-thick,9)" fill="none"/>
    <path d="M 20,30 L 160,30" stroke="var(--color-C-5,#888888)" stroke-width="var(--stroke-width-thick,9)" fill="none"/>
    <path d="M 20,15 L 160,15" stroke="var(--color-C-6,#888888)" stroke-width="var(--stroke-width-thick,9)" fill="none"/>
  </g>
  <rect x="-355.41" y="96.381" width="408.876" height="22.844" style="fill: rgb(255, 255, 255);"/>
  <rect x="-341.37" y="115.103" width="548.907" height="20.716" style="fill: rgb(255, 255, 255);"/>
  <rect x="-384.19" y="125.941" width="548.907" height="22.844" style="fill: rgb(255, 255, 255);"/>
  <rect x="-339.29" y="149.823" width="659.545" height="40.533" style="fill: rgb(255, 255, 255);"/>
  <rect x="-277.12" y="166.143" width="616.304" height="21.798" style="fill: rgb(255, 255, 255);"/>
  <rect x="-346.88" y="181.422" width="723.544" height="40.169" style="fill: rgb(255, 255, 255);"/>
</svg>