<?xml version="1.0" encoding="utf-8"?>
<svg xmlns="http://www.w3.org/2000/svg" width="1370" height="270" viewBox="0 0 1370 270">
  <style>
    :root {









      --color-C-6: #89C7F0;
      --color-C-5: #4FAEEA;
      --color-C-4: #4090D1;
      --color-C-3: #3270B8;
      --color-C-2: #2F56A8;
      --color-C-1: #2C308B;

      --color-6: #8000ff;
      --stroke-width-thin: 3;
      --stroke-width-thick: 9px;
    }
  </style>
  <defs>
    <g id="straight-segment">
      <path d="M 20,90 L 160,90" stroke="var(--color-C-1,#888888)" stroke-width="var(--stroke-width-thick,9)" fill="none"/>
      <path d="M 20,75 L 160,75" stroke="var(--color-C-2,#888888)" stroke-width="var(--stroke-width-thick,9)" fill="none"/>
      <path d="M 20,60 L 160,60" stroke="var(--color-C-3,#888888)" stroke-width="var(--stroke-width-thick,9)" fill="none"/>
      <path d="M 20,45 L 160,45" stroke="var(--color-C-4,#888888)" stroke-width="var(--stroke-width-thick,9)" fill="none"/>
      <path d="M 20,30 L 160,30" stroke="var(--color-C-5,#888888)" stroke-width="var(--stroke-width-thick,9)" fill="none"/>
      <path d="M 20,15 L 160,15" stroke="var(--color-C-6,#888888)" stroke-width="var(--stroke-width-thick,9)" fill="none"/>
    </g>
  </defs>
  <g transform="matrix(-0.000002, -2.086209, 1.058346, 0, 1203.802734, 260.681671)" style="transform-origin: 90px 52.5px;">
    <path d="M 20,90 L 160,90" stroke="var(--color-C-1,#888888)" stroke-width="var(--stroke-width-thick,9)" fill="none"/>
    <path d="M 20,75 L 160,75" stroke="var(--color-C-2,#888888)" stroke-width="var(--stroke-width-thick,9)" fill="none"/>
    <path d="M 20,60 L 160,60" stroke="var(--color-C-3,#888888)" stroke-width="var(--stroke-width-thick,9)" fill="none"/>
    <path d="M 20,45 L 160,45" stroke="var(--color-C-4,#888888)" stroke-width="var(--stroke-width-thick,9)" fill="none"/>
    <path d="M 20,30 L 160,30" stroke="var(--color-C-5,#888888)" stroke-width="var(--stroke-width-thick,9)" fill="none"/>
    <path d="M 20,15 L 160,15" stroke="var(--color-C-6,#888888)" stroke-width="var(--stroke-width-thick,9)" fill="none"/>
  </g>
  <defs>
    <g id="curved-segment">
      <path d="M 20,150 Q 150,150 150,20" stroke="var(--color-C-1,#888888)" stroke-width="var(--stroke-width-thick,9)" fill="none"/>
      <path d="M 20,135 Q 135,135 135,20" stroke="var(--color-C-2,#888888)" stroke-width="var(--stroke-width-thick,9)" fill="none"/>
      <path d="M 20,120 Q 120,120 120,20" stroke="var(--color-C-3,#888888)" stroke-width="var(--stroke-width-thick,9)" fill="none"/>
      <path d="M 20,105 Q 105,105 105,20" stroke="var(--color-C-4,#888888)" stroke-width="var(--stroke-width-thick,9)" fill="none"/>
      <path d="M 20,90 Q 90,90 90,20" stroke="var(--color-C-5,#888888)" stroke-width="var(--stroke-width-thick,9)" fill="none"/>
      <path d="M 20,75 Q 75,75 75,20" stroke="var(--color-C-6,#888888)" stroke-width="var(--stroke-width-thick,9)" fill="none"/>
    </g>
  </defs>
  <g transform="matrix(0, -1.058346, 1.058346, 0, 1179.486938, 13.324326)" style="transform-origin: 85px 85px;">
    <path d="M 20,150 Q 150,150 150,20" stroke="var(--color-C-1,#888888)" stroke-width="var(--stroke-width-thick,9)" fill="none"/>
    <path d="M 20,135 Q 135,135 135,20" stroke="var(--color-C-2,#888888)" stroke-width="var(--stroke-width-thick,9)" fill="none"/>
    <path d="M 20,120 Q 120,120 120,20" stroke="var(--color-C-3,#888888)" stroke-width="var(--stroke-width-thick,9)" fill="none"/>
    <path d="M 20,105 Q 105,105 105,20" stroke="var(--color-C-4,#888888)" stroke-width="var(--stroke-width-thick,9)" fill="none"/>
    <path d="M 20,90 Q 90,90 90,20" stroke="var(--color-C-5,#888888)" stroke-width="var(--stroke-width-thick,9)" fill="none"/>
    <path d="M 20,75 Q 75,75 75,20" stroke="var(--color-C-6,#888888)" stroke-width="var(--stroke-width-thick,9)" fill="none"/>
  </g>
  <g transform="matrix(-9.436682, 0.000006, 0, -1.058346, 446.349304, 16.72023)" style="transform-origin: 90px 52.5px;">
    <path d="M 20,90 L 160,90" stroke="var(--color-C-1,#888888)" stroke-width="var(--stroke-width-thick,9)" fill="none"/>
    <path d="M 20,75 L 160,75" stroke="var(--color-C-2,#888888)" stroke-width="var(--stroke-width-thick,9)" fill="none"/>
    <path d="M 20,60 L 160,60" stroke="var(--color-C-3,#888888)" stroke-width="var(--stroke-width-thick,9)" fill="none"/>
    <path d="M 20,45 L 160,45" stroke="var(--color-C-4,#888888)" stroke-width="var(--stroke-width-thick,9)" fill="none"/>
    <path d="M 20,30 L 160,30" stroke="var(--color-C-5,#888888)" stroke-width="var(--stroke-width-thick,9)" fill="none"/>
    <path d="M 20,15 L 160,15" stroke="var(--color-C-6,#888888)" stroke-width="var(--stroke-width-thick,9)" fill="none"/>
  </g>
</svg>