<?xml version="1.0" encoding="utf-8"?>
<svg width="80" height="80" viewBox="0 0 80 80" xmlns="http://www.w3.org/2000/svg">
  <path d="M 31.74 43.65 L 16.157 43.664 L 16.157 39.964 L 7.504 47.98 L 16.157 55.98 L 16.157 52.28 L 31.975 52.266 L 31.975 44.65 L 31.74 43.65 Z" style="stroke-width: 1; fill: currentColor; transform-origin: 19.739px 47.969px;"/>
  <path d="M 31.74 11.936 L 16.157 11.95 L 16.157 8.25 L 7.504 16.266 L 16.157 24.266 L 16.157 20.566 L 31.975 20.552 L 31.975 12.936 L 31.74 11.936 Z" style="stroke-width: 1; fill: currentColor; transform-origin: 19.739px 16.255px;"/>
  <rect style="fill: currentColor;" x="24" y="1" width="32" height="64" rx="16" ry="16"></rect>
   <ellipse style="fill: var(--svg-inner-bg)" cx="40" cy="17" rx="14" ry="14"></ellipse>
   <ellipse style="fill: var(--svg-inner-bg)" cx="40" cy="49" rx="14" ry="14"></ellipse>
  
  <use href="#DEBT_ICON" width="24" height="24" transform="matrix(1, 0, 0, 1, 28, 5)"/>
  <use href="#COLLATERAL_ICON" width="24" height="24" transform="matrix(1, 0, 0, 1, 28, 37)"/>
</svg>