<?xml version="1.0" encoding="utf-8"?>
<svg width="80" height="80" viewBox="0 0 80 80" xmlns="http://www.w3.org/2000/svg">
  <path d="M 64.656 35.916 L 64.656 51.708 L 68.318 51.708 L 60.376 60.476 L 52.434 51.708 L 56.096 51.708 L 56.096 35.678 L 63.656 35.678 L 64.656 35.916 Z" style="fill: rgb(69, 85, 108); stroke-width: 1; transform-origin: 60.376px 48.077px;" transform="matrix(0, -1, 1, 0, 0.000001, 0.000001)"/>
  <path d="M 64.656 3.914 L 64.656 19.706 L 68.318 19.706 L 60.376 28.474 L 52.434 19.706 L 56.096 19.706 L 56.096 3.676 L 63.656 3.676 L 64.656 3.914 Z" style="fill: rgb(69, 85, 108); stroke-width: 1; transform-origin: 60.376px 16.075px;" transform="matrix(0, -1, 1, 0, -0.00000191, -0.00000191)"/>
  <rect style="fill: rgb(69, 85, 108);" x="24" y="1" width="32" height="64" rx="16" ry="16"></rect>
   <ellipse style="fill: rgb(23, 27, 36)" cx="40" cy="17" rx="14" ry="14"></ellipse>
   <ellipse style="fill: rgb(23, 27, 36)" cx="40" cy="49" rx="14" ry="14"></ellipse>
  
  <use href="#DEBT_ICON" width="24" height="24" transform="matrix(1, 0, 0, 1, 28, 5)"/>
  <use href="#COLLATERAL_ICON" width="24" height="24" transform="matrix(1, 0, 0, 1, 28, 37)"/>
</svg>