 <?xml version="1.0" encoding="utf-8"?>
<svg width="80" height="80" viewBox="0 0 80 80" xmlns="http://www.w3.org/2000/svg">
  <circle cx="40" cy="20" r="18" fill="var(--svg-inner-bg)" stroke="currentColor" style="stroke-width: 2px;"/>
  <path d="M 29.987 23.311 C 29.849 23.311 29.728 23.218 29.693 23.084 C 29.448 22.164 29.325 21.214 29.325 20.262 C 29.325 14.305 34.089 9.438 40.009 9.276 L 40.009 6.885 C 40.009 6.767 40.077 6.661 40.18 6.61 C 40.285 6.559 40.41 6.572 40.503 6.644 L 47.482 12.098 C 47.555 12.155 47.598 12.245 47.598 12.338 C 47.598 12.432 47.555 12.521 47.482 12.579 L 40.502 18.033 C 40.41 18.104 40.285 18.117 40.18 18.067 C 40.076 18.016 40.009 17.91 40.009 17.793 L 40.009 15.375 C 35.434 15.508 31.459 18.641 30.282 23.084 C 30.246 23.218 30.126 23.311 29.987 23.311 Z" style="stroke: none; stroke-width: 1; stroke-dasharray: none; stroke-linecap: butt; stroke-linejoin: miter; stroke-miterlimit: 10; fill-rule: nonzero; opacity: 1; fill: rgb(255, 10, 10);" stroke-linecap="round"/>
  <path d="M 37.931 33.663 C 37.851 33.663 37.772 33.637 37.707 33.586 L 29.38 27.078 C 29.292 27.009 29.24 26.903 29.24 26.792 C 29.24 26.68 29.292 26.574 29.38 26.505 L 37.707 19.997 C 37.816 19.912 37.965 19.896 38.09 19.957 C 38.215 20.018 38.295 20.145 38.295 20.284 L 38.295 23.168 C 43.754 23.009 48.496 19.272 49.901 13.97 C 49.943 13.811 50.087 13.7 50.253 13.7 C 50.417 13.7 50.562 13.811 50.604 13.97 C 50.895 15.068 51.042 16.201 51.042 17.338 C 51.042 24.447 45.356 30.252 38.294 30.446 L 38.294 33.299 C 38.294 33.438 38.215 33.565 38.09 33.626 C 38.039 33.651 37.985 33.663 37.931 33.663 Z" style="stroke: none; stroke-width: 1; stroke-dasharray: none; stroke-linecap: butt; stroke-linejoin: miter; stroke-miterlimit: 10; fill-rule: nonzero; opacity: 1; fill: rgb(0, 255, 31);" stroke-linecap="round"/>
  <g style="stroke: none; stroke-width: 0; stroke-dasharray: none; stroke-linecap: butt; stroke-linejoin: miter; stroke-miterlimit: 10; fill: none; fill-rule: nonzero; opacity: 1;" transform="matrix(0.371257, 0, 0, 0.272634, 21.406218, 6.824441)"/>
  <g style="stroke: none; stroke-width: 0; stroke-dasharray: none; stroke-linecap: butt; stroke-linejoin: miter; stroke-miterlimit: 10; fill: none; fill-rule: nonzero; opacity: 1;" transform="matrix(0.371257, 0, 0, 0.272634, 21.406218, 6.824441)"/>
</svg>